<?xml version="1.0" encoding="utf-8"?>
<!-- Generator: Adobe Illustrator 14.0.0, SVG Export Plug-In . SVG Version: 6.00 Build 43363)  -->
<!DOCTYPE svg PUBLIC "-//W3C//DTD SVG 1.1//EN" "http://www.w3.org/Graphics/SVG/1.1/DTD/svg11.dtd">
<svg version="1.1" id="Layer_1" xmlns="http://www.w3.org/2000/svg" xmlns:xlink="http://www.w3.org/1999/xlink" x="0px" y="0px"
	 width="20px" height="20px" viewBox="0 0 20 20" enable-background="new 0 0 20 20" xml:space="preserve">
<path fill="#483720" d="M16.234,11.686l3.281-1.674l-3.281-1.674l1.999-3.082l-3.68,0.182l0.183-3.665l-3.095,1.991L9.96,0.5
	L8.28,3.764L5.183,1.773l0.184,3.665L1.685,5.256l2.001,3.082l-3.28,1.674l3.28,1.674l-2.001,3.083l3.681-0.182l-0.184,3.664
	L8.28,16.26l1.68,3.266l1.682-3.266l3.095,1.991l-0.183-3.664l3.68,0.182L16.234,11.686z M9.961,14.983
	c-2.758,0-4.993-2.227-4.993-4.972c0-2.746,2.235-4.97,4.993-4.97c2.754,0,4.989,2.225,4.989,4.97
	C14.95,12.757,12.715,14.983,9.961,14.983z"/>
</svg>
