<?xml version="1.0" encoding="utf-8"?>
<!DOCTYPE svg PUBLIC "-//W3C//DTD SVG 1.1//EN" "http://www.w3.org/Graphics/SVG/1.1/DTD/svg11.dtd">
<svg version="1.1" id="Layer_1" xmlns="http://www.w3.org/2000/svg" xmlns:xlink="http://www.w3.org/1999/xlink" x="0px" y="0px"
	 width="20px" height="20px" viewBox="0 0 20 20" enable-background="new 0 0 20 20" xml:space="preserve">
<g>
	<path fill="#B9539F" d="M479.562-510.864l3.293-1.688l-3.293-1.688l2.006-3.107l-3.695,0.184l0.186-3.696l-3.109,2.008
		l-1.688-3.292l-1.688,3.292l-3.109-2.008l0.184,3.696l-3.695-0.184l2.008,3.107l-3.293,1.688l3.293,1.688l-2.008,3.108l3.695-0.183
		l-0.184,3.695l3.109-2.008l1.688,3.292l1.688-3.292l3.109,2.008l-0.186-3.695l3.695,0.183L479.562-510.864z M473.262-507.539
		c-2.77,0-5.014-2.245-5.014-5.014s2.244-5.012,5.014-5.012c2.766,0,5.012,2.243,5.012,5.012S476.027-507.539,473.262-507.539z"/>
	<g>
		<circle fill-rule="evenodd" clip-rule="evenodd" fill="#996799" stroke="#FFFFFF" cx="473.263" cy="-512.552" r="5.626"/>
		<path fill-rule="evenodd" clip-rule="evenodd" fill="#D3A8CE" d="M473.395-517.677c2.896,0,5.244,2.285,5.244,5.104
			s-2.348,5.106-5.244,5.106V-517.677z"/>
	</g>
</g>
<polygon fill-rule="evenodd" clip-rule="evenodd" fill="#493821" points="983,-368.064 985.426,-369.308 983,-370.551 
	984.479,-372.839 981.758,-372.704 981.893,-375.425 979.604,-373.947 978.361,-376.371 977.119,-373.947 974.829,-375.425 
	974.965,-372.704 972.242,-372.839 973.723,-370.551 971.297,-369.308 973.723,-368.064 972.242,-365.775 974.965,-365.911 
	974.829,-363.189 977.119,-364.668 978.361,-362.242 979.604,-364.668 981.893,-363.189 981.758,-365.911 984.479,-365.775 "/>
<g>
	<path fill="#B9539F" d="M479.562-510.864l3.293-1.688l-3.293-1.688l2.006-3.107l-3.695,0.184l0.186-3.696l-3.109,2.008
		l-1.688-3.292l-1.688,3.292l-3.109-2.008l0.184,3.696l-3.695-0.184l2.008,3.107l-3.293,1.688l3.293,1.688l-2.008,3.108l3.695-0.183
		l-0.184,3.695l3.109-2.008l1.688,3.292l1.688-3.292l3.109,2.008l-0.186-3.695l3.695,0.183L479.562-510.864z M473.262-507.539
		c-2.77,0-5.014-2.245-5.014-5.014s2.244-5.012,5.014-5.012c2.766,0,5.012,2.243,5.012,5.012S476.027-507.539,473.262-507.539z"/>
	<g>
		<circle fill-rule="evenodd" clip-rule="evenodd" fill="#996799" stroke="#FFFFFF" cx="473.263" cy="-512.552" r="5.626"/>
		<path fill-rule="evenodd" clip-rule="evenodd" fill="#D3A8CE" d="M473.395-517.677c2.896,0,5.244,2.285,5.244,5.104
			s-2.348,5.106-5.244,5.106V-517.677z"/>
	</g>
</g>
<polygon points="16.301,11.688 19.594,10 16.301,8.312 18.307,5.204 14.611,5.388 14.797,1.691 11.688,3.699 10,0.407 8.312,3.699 
	5.203,1.691 5.387,5.388 1.691,5.204 3.699,8.312 0.406,10 3.699,11.688 1.691,14.795 5.387,14.613 5.203,18.309 8.312,16.301 
	10,19.592 11.688,16.301 14.797,18.309 14.611,14.613 18.307,14.795 "/>
</svg>
